<svg width="178" height="36" viewBox="0 0 178 36" fill="none" xmlns="http://www.w3.org/2000/svg">
<path d="M13.8807 35.4943C11.142 35.4943 8.77841 34.9545 6.78977 33.875C4.8125 32.7841 3.28977 31.233 2.22159 29.2216C1.16477 27.1989 0.636364 24.7955 0.636364 22.0114C0.636364 19.3068 1.17045 16.9432 2.23864 14.9205C3.30682 12.8864 4.8125 11.3068 6.75568 10.1818C8.69886 9.04545 10.9886 8.47727 13.625 8.47727C15.4886 8.47727 17.1932 8.76705 18.7386 9.34659C20.2841 9.92614 21.6193 10.7841 22.7443 11.9205C23.8693 13.0568 24.7443 14.4602 25.3693 16.1307C25.9943 17.7898 26.3068 19.6932 26.3068 21.8409V23.9205H3.55114V19.0795H18.5511C18.5398 18.1932 18.3295 17.4034 17.9205 16.7102C17.5114 16.017 16.9489 15.4773 16.233 15.0909C15.5284 14.6932 14.7159 14.4943 13.7955 14.4943C12.8636 14.4943 12.0284 14.7045 11.2898 15.125C10.5511 15.5341 9.96591 16.0966 9.53409 16.8125C9.10227 17.517 8.875 18.3182 8.85227 19.2159V24.142C8.85227 25.2102 9.0625 26.1477 9.48295 26.9545C9.90341 27.75 10.5 28.3693 11.2727 28.8125C12.0455 29.2557 12.9659 29.4773 14.0341 29.4773C14.7727 29.4773 15.4432 29.375 16.0455 29.1705C16.6477 28.9659 17.1648 28.6648 17.5966 28.267C18.0284 27.8693 18.3523 27.3807 18.5682 26.8011L26.2216 27.0227C25.9034 28.7386 25.2045 30.233 24.125 31.5057C23.0568 32.767 21.6534 33.75 19.9148 34.4545C18.1761 35.1477 16.1648 35.4943 13.8807 35.4943ZM78.223 35.4943C75.4616 35.4943 73.0923 34.9261 71.1151 33.7898C69.1491 32.6534 67.6378 31.0739 66.581 29.0511C65.5241 27.017 64.9957 24.6648 64.9957 21.9943C64.9957 19.3125 65.5241 16.9602 66.581 14.9375C67.6491 12.9034 69.1662 11.3182 71.1321 10.1818C73.1094 9.04545 75.4673 8.47727 78.206 8.47727C80.6264 8.47727 82.7344 8.91477 84.5298 9.78977C86.3366 10.6648 87.7457 11.9034 88.7571 13.5057C89.7798 15.0966 90.3196 16.9659 90.3764 19.1136H82.5866C82.4276 17.7727 81.973 16.7216 81.223 15.9602C80.4844 15.1989 79.5185 14.8182 78.3253 14.8182C77.3594 14.8182 76.5128 15.0909 75.7855 15.6364C75.0582 16.1705 74.4901 16.9659 74.081 18.0227C73.6832 19.0682 73.4844 20.3636 73.4844 21.9091C73.4844 23.4545 73.6832 24.7614 74.081 25.8295C74.4901 26.8864 75.0582 27.6875 75.7855 28.233C76.5128 28.767 77.3594 29.0341 78.3253 29.0341C79.098 29.0341 79.7798 28.8693 80.3707 28.5398C80.973 28.2102 81.4673 27.7273 81.8537 27.0909C82.2401 26.4432 82.4844 25.6591 82.5866 24.7386H90.3764C90.2969 26.8977 89.7571 28.7841 88.7571 30.3977C87.7685 32.0114 86.3764 33.267 84.581 34.1648C82.7969 35.0511 80.6776 35.4943 78.223 35.4943ZM106.881 35.4943C104.142 35.4943 101.778 34.9545 99.7898 33.875C97.8125 32.7841 96.2898 31.233 95.2216 29.2216C94.1648 27.1989 93.6364 24.7955 93.6364 22.0114C93.6364 19.3068 94.1705 16.9432 95.2386 14.9205C96.3068 12.8864 97.8125 11.3068 99.7557 10.1818C101.699 9.04545 103.989 8.47727 106.625 8.47727C108.489 8.47727 110.193 8.76705 111.739 9.34659C113.284 9.92614 114.619 10.7841 115.744 11.9205C116.869 13.0568 117.744 14.4602 118.369 16.1307C118.994 17.7898 119.307 19.6932 119.307 21.8409V23.9205H96.5511V19.0795H111.551C111.54 18.1932 111.33 17.4034 110.92 16.7102C110.511 16.017 109.949 15.4773 109.233 15.0909C108.528 14.6932 107.716 14.4943 106.795 14.4943C105.864 14.4943 105.028 14.7045 104.29 15.125C103.551 15.5341 102.966 16.0966 102.534 16.8125C102.102 17.517 101.875 18.3182 101.852 19.2159V24.142C101.852 25.2102 102.063 26.1477 102.483 26.9545C102.903 27.75 103.5 28.3693 104.273 28.8125C105.045 29.2557 105.966 29.4773 107.034 29.4773C107.773 29.4773 108.443 29.375 109.045 29.1705C109.648 28.9659 110.165 28.6648 110.597 28.267C111.028 27.8693 111.352 27.3807 111.568 26.8011L119.222 27.0227C118.903 28.7386 118.205 30.233 117.125 31.5057C116.057 32.767 114.653 33.75 112.915 34.4545C111.176 35.1477 109.165 35.4943 106.881 35.4943ZM135.803 35.4943C133.064 35.4943 130.7 34.9545 128.712 33.875C126.734 32.7841 125.212 31.233 124.143 29.2216C123.087 27.1989 122.558 24.7955 122.558 22.0114C122.558 19.3068 123.092 16.9432 124.161 14.9205C125.229 12.8864 126.734 11.3068 128.678 10.1818C130.621 9.04545 132.911 8.47727 135.547 8.47727C137.411 8.47727 139.115 8.76705 140.661 9.34659C142.206 9.92614 143.541 10.7841 144.666 11.9205C145.791 13.0568 146.666 14.4602 147.291 16.1307C147.916 17.7898 148.229 19.6932 148.229 21.8409V23.9205H125.473V19.0795H140.473C140.462 18.1932 140.251 17.4034 139.842 16.7102C139.433 16.017 138.871 15.4773 138.155 15.0909C137.45 14.6932 136.638 14.4943 135.717 14.4943C134.786 14.4943 133.95 14.7045 133.212 15.125C132.473 15.5341 131.888 16.0966 131.456 16.8125C131.024 17.517 130.797 18.3182 130.774 19.2159V24.142C130.774 25.2102 130.984 26.1477 131.405 26.9545C131.825 27.75 132.422 28.3693 133.195 28.8125C133.967 29.2557 134.888 29.4773 135.956 29.4773C136.695 29.4773 137.365 29.375 137.967 29.1705C138.57 28.9659 139.087 28.6648 139.518 28.267C139.95 27.8693 140.274 27.3807 140.49 26.8011L148.143 27.0227C147.825 28.7386 147.126 30.233 146.047 31.5057C144.979 32.767 143.575 33.75 141.837 34.4545C140.098 35.1477 138.087 35.4943 135.803 35.4943ZM162.048 35.375C160.116 35.375 158.361 34.875 156.781 33.875C155.202 32.875 153.94 31.375 152.997 29.375C152.054 27.375 151.582 24.892 151.582 21.9261C151.582 18.8466 152.071 16.3125 153.048 14.3239C154.026 12.3352 155.304 10.8636 156.884 9.90909C158.474 8.95455 160.185 8.47727 162.014 8.47727C163.389 8.47727 164.565 8.71591 165.543 9.19318C166.52 9.65909 167.327 10.2614 167.963 11C168.599 11.7386 169.082 12.5057 169.412 13.3011H169.582V0.0909081H177.918V35H169.668V30.7557H169.412C169.06 31.5625 168.56 32.3182 167.912 33.0227C167.264 33.7273 166.452 34.2955 165.474 34.7273C164.509 35.1591 163.366 35.375 162.048 35.375ZM164.946 28.8807C165.957 28.8807 166.821 28.5966 167.537 28.0284C168.253 27.4489 168.804 26.6364 169.19 25.5909C169.577 24.5455 169.77 23.3182 169.77 21.9091C169.77 20.4773 169.577 19.2443 169.19 18.2102C168.815 17.1761 168.264 16.3807 167.537 15.8239C166.821 15.267 165.957 14.9886 164.946 14.9886C163.912 14.9886 163.037 15.2727 162.321 15.8409C161.605 16.4091 161.06 17.2102 160.685 18.2443C160.321 19.2784 160.139 20.5 160.139 21.9091C160.139 23.3182 160.327 24.5455 160.702 25.5909C161.077 26.6364 161.616 27.4489 162.321 28.0284C163.037 28.5966 163.912 28.8807 164.946 28.8807Z" fill="black"/>
<path d="M42.3935 0.0909081L46.9276 11.1193H47.2003L55.4844 0.0909081H65.2514L51.8537 17.5455L59.7969 35H50.3366L45.6321 23.8523H45.3594L36.973 35H27.1378L40.8935 17.5455L33.206 0.0909081H42.3935Z" fill="#14B8A6"/>
</svg>
